<svg viewBox="0 0 64 64" fill="none" xmlns="http://www.w3.org/2000/svg">
<path d="M0 32C0 17.9734 0 10.9601 3.87396 6.23969C4.58315 5.37553 5.37553 4.58315 6.23969 3.87396C10.9601 0 17.9734 0 32 0C46.0266 0 53.0399 0 57.7603 3.87396C58.6245 4.58315 59.4169 5.37553 60.126 6.23969C64 10.9601 64 17.9734 64 32C64 46.0266 64 53.0399 60.126 57.7603C59.4169 58.6245 58.6245 59.4169 57.7603 60.126C53.0399 64 46.0266 64 32 64C17.9734 64 10.9601 64 6.23969 60.126C5.37553 59.4169 4.58315 58.6245 3.87396 57.7603C0 53.0399 0 46.0266 0 32Z" fill="white"/>
<path fill-rule="evenodd" clip-rule="evenodd" d="M16.2158 32.876L24.7825 19.0061C29.5957 11.2134 41.6342 15.456 40.4981 24.5445C40.2115 26.8368 41.1859 29.1051 43.0457 30.4755L45.5638 32.331C52.5788 37.4999 48.2478 48.6212 39.5847 47.6847L22.5588 45.8441C16.3188 45.1695 12.9176 38.2159 16.2158 32.876L17.446 33.6358L16.2158 32.876ZM28.4126 21.2482L19.8459 35.1181C18.1968 37.788 19.8974 41.2648 23.0174 41.6021L40.0433 43.4427C44.3748 43.911 46.5403 38.3503 43.0329 35.7659L40.5147 33.9104C37.4118 31.6241 35.7863 27.8397 36.2644 24.0153C36.832 19.4745 30.8173 17.3548 28.4126 21.2482Z" fill="black"/>
</svg>
